PathFileType	4	(X/Y/Z)	C:\Users\dell\Documents\OpenSim\4.1\20210318\TRC_File\LX_20210318_static_0001.trc
DataRate	CameraRate	NumFrames	NumMarkers	Units	OrigDataRate	OrigDataStartFrame	OrigNumFrames
100.000000	100.000000	4	38	mm	100.000000	150	300
Frame#	Time	Sternum			R.Acromium			L.Acromium			R.Arm			L.Arm			R.Hand			L.Hand			R.ASIS			L.ASIS			V.Sacral			R.Thigh.Upper			R.Thigh.Front			R.Thigh.Rear			R.Knee.Lat			R.Knee.Med			R.Shank.Upper			R.Shank.Front			R.Shank.Rear			R.Ankle.Lat			R.Ankle.Med			R.Heel			R.Toe.Lat			R.Toe.Med			R.Toe.Tip			L.Thigh.Upper			L.Thigh.Front			L.Thigh.Rear			L.Knee.Lat			L.Knee.Med			L.Shank.Upper			L.Shank.Front			L.Shank.Rear			L.Ankle.Lat			L.Ankle.Med			L.Heel			L.Toe.Lat			L.Toe.Med			L.Toe.Tip			
		X1	Y1	Z1	X2	Y2	Z2	X3	Y3	Z3	X4	Y4	Z4	X5	Y5	Z5	X6	Y6	Z6	X7	Y7	Z7	X8	Y8	Z8	X9	Y9	Z9	X10	Y10	Z10	X11	Y11	Z11	X12	Y12	Z12	X13	Y13	Z13	X14	Y14	Z14	X15	Y15	Z15	X16	Y16	Z16	X17	Y17	Z17	X18	Y18	Z18	X19	Y19	Z19	X20	Y20	Z20	X21	Y21	Z21	X22	Y22	Z22	X23	Y23	Z23	X24	Y24	Z24	X25	Y25	Z25	X26	Y26	Z26	X27	Y27	Z27	X28	Y28	Z28	X29	Y29	Z29	X30	Y30	Z30	X31	Y31	Z31	X32	Y32	Z32	X33	Y33	Z33	X34	Y34	Z34	X35	Y35	Z35	X36	Y36	Z36	X37	Y37	Z37	X38	Y38	Z38	

151	1.5	-109.9899444580078	1296.109008789063	-7.284956455230713	-237.1884765625	1450.208374023438	122.7751541137695	-236.7989959716797	1459.708251953125	-138.1879577636719	-307.9623718261719	1424.836303710938	428.8437194824219	-291.6072998046875	1430.12158203125	-450.1813354492188	-299.3408203125	1421.744995117188	679.970947265625	-258.2798461914063	1413.869873046875	-682.9588012695313	-137.1466064453125	973.5249633789063	128.4298095703125	-121.8881378173828	961.9098510742188	-102.8672103881836	-317.0043640136719	963.5685424804688	-6.850255012512207	-217.481689453125	646.2481689453125	167.7646789550781	-154.8919067382813	617.3753051757813	98.11489868164063	-223.8859405517578	554.2848510742188	165.7200622558594	-247.8021697998047	465.1300659179688	168.6717681884766	-251.4045257568359	461.6151733398438	38.83845901489258	-255.4407958984375	408.2439880371094	168.6026000976563	-206.7794189453125	357.9914855957031	102.6381454467773	-272.8868713378906	289.382568359375	174.6818237304688	-292.9009704589844	55.85817337036133	154.7243499755859	-276.9205322265625	81.66227722167969	70.07112884521484	-331.1100463867188	25.31402206420898	97.5064697265625	-175.2224884033203	21.16744422912598	199.2472076416016	-122.6691665649414	20.29417419433594	108.4314880371094	-82.98750305175781	25.07415962219238	142.5127563476563	-191.6845092773438	667.7847900390625	-164.4266204833984	-148.7599792480469	628.1730346679688	-95.76702117919922	-197.3100433349609	570.2786865234375	-161.6416625976563	-218.0855712890625	463.4185485839844	-164.4088439941406	-273.7620849609375	457.8162231445313	-44.91511154174805	-225.2115325927734	402.85791015625	-165.0912170410156	-204.265625	357.4481506347656	-98.66010284423828	-242.0299530029297	297.414306640625	-168.1653289794922	-288.4432983398438	53.55234909057617	-150.9640197753906	-273.6900024414063	75.84365081787109	-62.52846527099609	-339.2523498535156	24.59559440612793	-94.17948150634766	-183.6169738769531	20.84339141845703	-188.501953125	-131.6427154541016	22.67727661132813	-102.6917495727539	-92.33608245849609	24.36557960510254	-140.184326171875	
152	1.51	-110.1034774780273	1296.095947265625	-7.262211799621582	-237.2702178955078	1450.237548828125	122.780891418457	-236.8735198974609	1459.697875976563	-138.1498870849609	-308.0147705078125	1424.853759765625	428.8590393066406	-291.6501159667969	1430.17138671875	-450.1669921875	-299.3182373046875	1421.747436523438	680.00341796875	-258.3494567871094	1413.865112304688	-682.9281005859375	-137.2850646972656	973.5604858398438	128.4402160644531	-122.0275802612305	961.92333984375	-102.8317718505859	-317.1389465332031	963.5116577148438	-6.83126163482666	-217.5282745361328	646.255859375	167.7564544677734	-154.929443359375	617.4074096679688	98.11805725097656	-223.9117889404297	554.2952880859375	165.7426147460938	-247.8178100585938	465.1296997070313	168.6694793701172	-251.4281463623047	461.6071472167969	38.83615112304688	-255.4588012695313	408.2337646484375	168.6132507324219	-206.80224609375	357.9839477539063	102.6466598510742	-272.9094543457031	289.3724975585938	174.6883697509766	-292.9029541015625	55.84403610229492	154.7080383300781	-276.9086303710938	81.64862060546875	70.07359313964844	-331.1148071289063	25.2939338684082	97.50203704833984	-175.2267761230469	21.15228271484375	199.2390289306641	-122.6698303222656	20.28407669067383	108.4245529174805	-82.97785186767578	25.07831001281738	142.5101318359375	-191.736572265625	667.7887573242188	-164.4191741943359	-148.8405914306641	628.2073364257813	-95.74372100830078	-197.2665557861328	570.3526611328125	-161.8282012939453	-218.0790252685547	463.4268798828125	-164.4060211181641	-273.7562866210938	457.8377685546875	-44.89816284179688	-225.1959838867188	402.8681030273438	-165.08203125	-204.2528228759766	357.4579162597656	-98.64767456054688	-242.0044250488281	297.4180603027344	-168.1526641845703	-288.4526672363281	53.55112838745117	-150.9658050537109	-273.692138671875	75.8272705078125	-62.51951599121094	-339.256103515625	24.59294700622559	-94.16573333740234	-183.6082458496094	20.83961868286133	-188.4952087402344	-131.6378936767578	22.67410659790039	-102.7042846679688	-92.34136199951172	24.36642646789551	-140.1898803710938	
153	1.52	-110.2019805908203	1296.103393554688	-7.20891284942627	-237.3372039794922	1450.254760742188	122.8100128173828	-236.9476623535156	1459.68212890625	-138.1189422607422	-308.0572509765625	1424.86376953125	428.9120788574219	-291.7008972167969	1430.166259765625	-450.15673828125	-299.3022766113281	1421.758666992188	680.0441284179688	-258.4624938964844	1413.838012695313	-682.9042358398438	-137.4256591796875	973.6026000976563	128.4680480957031	-122.1725845336914	961.9432373046875	-102.8010635375977	-317.2736206054688	963.4876708984375	-6.812333106994629	-217.5908050537109	646.2644653320313	167.7662200927734	-154.9727020263672	617.4295043945313	98.12908935546875	-223.9581909179688	554.2888793945313	165.7365264892578	-247.8471832275391	465.1288757324219	168.6937255859375	-251.4555969238281	461.6172180175781	38.84753799438477	-255.4888305664063	408.2372741699219	168.6323852539063	-206.8257293701172	357.9998779296875	102.6590728759766	-272.9213562011719	289.3774719238281	174.7095642089844	-292.9026489257813	55.84938812255859	154.7209930419922	-276.9103393554688	81.66960144042969	70.07427215576172	-331.1089477539063	25.30417060852051	97.49256896972656	-175.2228240966797	21.16201210021973	199.2454986572266	-122.6651840209961	20.29382514953613	108.4333572387695	-82.9976806640625	25.07858276367188	142.5090637207031	-191.7952880859375	667.8042602539063	-164.41357421875	-148.9424133300781	628.2299194335938	-95.74589538574219	-197.2699890136719	570.395751953125	-161.8467407226563	-218.0965576171875	463.4360961914063	-164.3950653076172	-273.7769165039063	457.8266296386719	-44.88532257080078	-225.1879425048828	402.8542175292969	-165.0878143310547	-204.2631225585938	357.4740905761719	-98.62882995605469	-242.0021209716797	297.4292907714844	-168.1374816894531	-288.4386901855469	53.53876876831055	-150.9609375	-273.6915588378906	75.83300018310547	-62.51364898681641	-339.2485961914063	24.58209037780762	-94.16268157958984	-183.6148681640625	20.83928680419922	-188.4908905029297	-131.6428833007813	22.68056678771973	-102.7029342651367	-92.34653472900391	24.36329078674316	-140.1954956054688	
154	1.53	-110.3034820556641	1296.102661132813	-7.204979419708252	-237.4068450927734	1450.264404296875	122.8248443603516	-237.017822265625	1459.685180664063	-138.1072692871094	-308.1089172363281	1424.908813476563	428.9600830078125	-291.7714233398438	1430.12744140625	-450.1718444824219	-299.2903442382813	1421.791870117188	680.0758056640625	-258.5955505371094	1413.782836914063	-682.90625	-137.577880859375	973.6373291015625	128.5126495361328	-122.3121566772461	961.9578247070313	-102.7510452270508	-317.4345703125	963.4503784179688	-6.762284755706787	-217.6894989013672	646.2805786132813	167.7950439453125	-155.0218505859375	617.477294921875	98.190185546875	-224.0342559814453	554.2837524414063	165.7570190429688	-247.8819732666016	465.1442260742188	168.7156829833984	-251.5013427734375	461.6151733398438	38.87772369384766	-255.5286712646484	408.2378845214844	168.6472930908203	-206.8516387939453	357.9976501464844	102.6855392456055	-272.94189453125	289.3741455078125	174.7269439697266	-292.9015197753906	55.84893798828125	154.7276458740234	-276.9178161621094	81.65836334228516	70.08099365234375	-331.1169128417969	25.29557800292969	97.50837707519531	-175.2306213378906	21.16297340393066	199.2351379394531	-122.6691970825195	20.30183410644531	108.4242630004883	-82.98619079589844	25.09485626220703	142.5092010498047	-191.8777770996094	667.8184204101563	-164.41943359375	-149.0345001220703	628.2760620117188	-95.72983551025391	-197.3505249023438	570.3983154296875	-161.8287506103516	-218.0968322753906	463.4444885253906	-164.4004364013672	-273.7977294921875	457.8378295898438	-44.85833740234375	-225.1799774169922	402.8699340820313	-165.0735015869141	-204.2715911865234	357.4924621582031	-98.60673522949219	-242.0032806396484	297.4143981933594	-168.1198425292969	-288.44580078125	53.54487991333008	-150.9701538085938	-273.7009887695313	75.82699584960938	-62.50787734985352	-339.2442626953125	24.57039642333984	-94.173583984375	-183.6121978759766	20.84169769287109	-188.4893951416016	-131.6457672119141	22.68752670288086	-102.7085800170898	-92.35215759277344	24.37099647521973	-140.1802825927734	
